<svg width="56" height="56" viewBox="0 0 56 56" fill="none" xmlns="http://www.w3.org/2000/svg">
<path d="M10.3285 47.6018L6.39801 3.5H49.602L45.6663 47.5948L27.9738 52.5L10.3285 47.6018Z" fill="black"/>
<path d="M28 48.7515L42.2975 44.7878L45.661 7.10675H28V48.7515Z" fill="#323232"/>
<path d="M28 23.0842H35.1575L35.651 17.5455H28V12.1362H41.5625L41.433 13.587L40.1047 28.4935H28V23.0842Z" fill="white"/>
<path d="M28.0332 37.1315L28.0087 37.1385L21.9852 35.511L21.6002 31.1973H16.17L16.9277 39.69L28.007 42.7665L28.0332 42.7595V37.1315Z" fill="#EBEBEB"/>
<path d="M34.6972 28.2642L34.0462 35.5075L28.014 37.135V42.763L39.102 39.69L39.1842 38.7765L40.124 28.2642H34.6972Z" fill="white"/>
<path d="M28.0192 12.1362V17.5455H14.9537L14.8452 16.3292L14.5985 13.587L14.469 12.1362H28.0192ZM28 23.0842V28.4935H22.0517L21.9432 27.2772L21.6982 24.535L21.5687 23.0842H28Z" fill="#EBEBEB"/>
</svg>
