<svg width="38" height="56" viewBox="0 0 38 56" fill="none" xmlns="http://www.w3.org/2000/svg">
<g clip-path="url(#clip0_37_73)">
<path d="M9.11086 0H18.185V18.1486H9.11097C-2.85575 17.6808 -2.97661 0.491313 9.11086 0ZM9.11086 37.0734H18.185V18.9248H9.11097C-2.9765 19.4161 -2.85575 36.6056 9.11086 37.0734ZM28.0357 0H18.9613V18.1486H28.0357C40.1634 17.4996 40.0122 0.370453 28.0357 0ZM18.185 46.9241V37.8497H9.11097C1.70606 37.8497 -2.9765 46.5314 2.17342 52.7671C7.08349 58.9478 18.1852 55.8663 18.1852 46.9241M37.1285 27.9991C37.1285 21.0254 29.5271 16.6433 23.479 20.1301C17.4309 23.617 17.4308 32.3813 23.479 35.8682C29.5272 39.3551 37.1285 34.9729 37.1285 27.9991Z" fill="black"/>
</g>
<defs>
<clipPath id="clip0_37_73">
<rect width="37.1875" height="56" fill="white"/>
</clipPath>
</defs>
</svg>
