<svg width="56" height="56" viewBox="0 0 56 56" fill="none" xmlns="http://www.w3.org/2000/svg">
<path d="M10.3285 47.6018L6.39624 3.5H49.6037L45.6662 47.5948L27.9737 52.5L10.3285 47.6018Z" fill="black"/>
<path d="M28 48.7515L42.2975 44.7878L45.661 7.10675H28V48.7515Z" fill="#323232"/>
<path d="M28 23.4622H20.8425L20.349 17.9235H28V12.5142H14.4375L14.567 13.9667L15.8953 28.8715H28V23.4622ZM28 37.5095L27.9755 37.5165L21.952 35.8907L21.567 31.577H16.1367L16.8945 40.068L27.9755 43.1445L28 43.1375V37.5095Z" fill="#EBEBEB"/>
<path d="M27.9808 23.4622V28.8715H34.6413L34.0148 35.8872L27.9808 37.5147V43.1427L39.0705 40.068L39.151 39.1545L40.4215 24.9147L40.5545 23.4622H27.9808ZM27.9808 12.5142V17.9235H41.0463L41.1548 16.709L41.4015 13.9667L41.531 12.5142H27.9808Z" fill="white"/>
</svg>
