<svg width="56" height="56" viewBox="0 0 56 56" fill="none" xmlns="http://www.w3.org/2000/svg">
<g clip-path="url(#clip0_36_2)">
<path d="M42.875 0H13.125C5.87626 0 0 5.87626 0 13.125V42.875C0 50.1237 5.87626 56 13.125 56H42.875C50.1237 56 56 50.1237 56 42.875V13.125C56 5.87626 50.1237 0 42.875 0Z" fill="black"/>
<path d="M22.2325 39.9479C22.2325 39.9479 20.5525 40.9704 23.4017 41.2628C26.8422 41.7012 28.6613 41.6279 32.4595 40.8979C32.4595 40.8979 33.4819 41.5562 34.8701 42.0669C26.3224 45.7192 15.5114 41.8478 22.2325 39.9479ZM21.1367 35.1999C21.1367 35.1999 19.3102 36.5881 22.1592 36.8797C25.8841 37.2448 28.8072 37.3181 33.8477 36.2963C33.8477 36.2963 34.5059 37.0272 35.6009 37.3923C25.3015 40.4602 13.7587 37.6839 21.1367 35.2006V35.1999ZM41.2989 43.5278C41.2989 43.5278 42.5406 44.5502 39.9107 45.3543C35.016 46.8151 19.3835 47.2542 15.0004 45.3543C13.4672 44.6961 16.3888 43.7461 17.3379 43.601C18.2877 43.3818 18.7987 43.3819 18.7987 43.3819C17.1187 42.2129 7.62171 45.7925 13.9773 46.8226C31.4364 49.6722 45.8279 45.5809 41.2983 43.5352L41.2989 43.5278ZM23.0359 30.2319C23.0359 30.2319 15.073 32.1318 20.1861 32.7884C22.3777 33.08 26.6875 33.0076 30.7055 32.7152C33.9929 32.4233 37.2877 31.8386 37.2877 31.8386C37.2877 31.8386 36.1185 32.3501 35.3152 32.8611C27.1998 34.9814 11.6399 34.0316 16.0963 31.8399C19.896 30.0134 23.0359 30.2319 23.0359 30.2319ZM37.2801 38.1946C45.4628 33.9574 41.6632 29.8668 39.0333 30.3785C38.3751 30.5244 38.0835 30.6703 38.0835 30.6703C38.0835 30.6703 38.3025 30.2319 38.8142 30.0869C44.0005 28.2603 48.092 35.5657 37.1344 38.4147C37.1344 38.4147 37.2077 38.3414 37.2801 38.1955V38.1946ZM23.8392 49.7359C31.7288 50.2475 43.7822 49.4441 44.0747 45.7177C44.0747 45.7177 43.4912 47.1785 37.5734 48.2744C30.853 49.516 22.5243 49.3701 17.6304 48.566C17.6304 48.566 18.6528 49.4425 23.8398 49.735L23.8392 49.7359Z" fill="white"/>
<path d="M32.3061 6.125C32.3061 6.125 36.8351 10.7273 27.9963 17.6663C20.9101 23.2908 26.3882 26.5055 27.9963 30.1571C23.8324 26.4322 20.8383 23.1442 22.8826 20.076C25.8849 15.5494 34.1386 13.3577 32.3061 6.125ZM29.9687 27.0904C32.0869 29.5011 29.3853 31.6927 29.3853 31.6927C29.3853 31.6927 34.7909 28.9177 32.3076 25.4831C30.0427 22.1957 28.2896 20.5883 37.7864 15.1088C37.7864 15.1088 22.8108 18.8337 29.9703 27.0889L29.9687 27.0904Z" fill="white"/>
</g>
<defs>
<clipPath id="clip0_36_2">
<rect width="56" height="56" fill="white"/>
</clipPath>
</defs>
</svg>
