<svg width="140" height="42" viewBox="0 0 140 42" fill="none" xmlns="http://www.w3.org/2000/svg">
<path d="M55.3333 4.9C56.4356 4.40222 57.2711 4.18889 57.84 4.26C58.4089 4.29556 58.8178 4.59778 59.0667 5.16667C59.2089 5.52222 59.28 5.87778 59.28 6.23333C59.3156 6.55333 59.2444 7.01556 59.0667 7.62C58.9244 8.18889 58.64 8.95333 58.2133 9.91333C57.8222 10.8378 57.2711 12.0467 56.56 13.54C55.3156 16.2778 54.2844 18.6244 53.4667 20.58C52.6489 22.5 51.9911 24.2067 51.4933 25.7C51.0311 27.1933 50.7111 28.5622 50.5333 29.8067C50.3556 31.0511 50.2667 32.3133 50.2667 33.5933C50.2667 34.2333 50.2667 34.7489 50.2667 35.14C50.3022 35.5311 50.3378 35.8511 50.3733 36.1C50.4089 36.3844 50.4622 36.6156 50.5333 36.7933C50.6044 36.9711 50.6933 37.1667 50.8 37.38C51.12 38.0911 51.4756 38.5533 51.8667 38.7667C52.2578 39.0156 52.8267 39.14 53.5733 39.14C54.1067 39.14 54.4622 39.1044 54.64 39.0333C54.8533 38.9978 55.0311 38.9089 55.1733 38.7667C55.28 38.5889 55.3511 38.4822 55.3867 38.4467C55.4578 38.4467 55.5467 38.5178 55.6533 38.66C55.7244 38.7311 55.76 38.8556 55.76 39.0333C55.7956 39.2111 55.8133 39.3889 55.8133 39.5667C55.8133 39.8156 55.7778 39.9933 55.7067 40.1C55.6711 40.2422 55.5111 40.3844 55.2267 40.5267C54.5156 40.8822 53.7511 40.9356 52.9333 40.6867C52.1511 40.4733 51.44 40.0111 50.8 39.3C50.1956 38.6244 49.7689 37.8956 49.52 37.1133C49.2711 36.3667 49.1289 35.2822 49.0933 33.86C49.0222 32.6156 49.0756 31.3533 49.2533 30.0733C49.4667 28.7578 49.8222 27.3 50.32 25.7C50.8178 24.1 51.4933 22.2867 52.3467 20.26C53.2356 18.1978 54.3556 15.7978 55.7067 13.06C56.9156 10.5356 57.7333 8.68667 58.16 7.51333C58.6222 6.34 58.7822 5.62889 58.64 5.38C58.5333 5.20222 58.2311 5.14889 57.7333 5.22C57.2711 5.29111 56.7378 5.46889 56.1333 5.75333C55.1022 6.25111 53.8044 7.12222 52.24 8.36667C50.6756 9.57556 49.04 10.98 47.3333 12.58C45.6267 14.18 43.9378 15.8689 42.2667 17.6467C40.6311 19.4244 39.2267 21.1133 38.0533 22.7133C37.9467 22.8556 37.7156 23.1578 37.36 23.62C37.04 24.0822 36.6844 24.5622 36.2933 25.06C35.7956 25.7356 35.3511 26.3222 34.96 26.82C34.6044 27.3178 34.2667 27.78 33.9467 28.2067C33.6267 28.6333 33.3244 29.06 33.04 29.4867C32.7556 29.9133 32.4356 30.3756 32.08 30.8733C31.3333 31.94 30.64 32.9356 30 33.86C29.36 34.82 28.7911 35.6378 28.2933 36.3133C28.1156 36.5978 27.8844 36.9356 27.6 37.3267C27.3156 37.7178 27.0844 38.0556 26.9067 38.34C26.3733 39.1222 25.8222 39.8156 25.2533 40.42C24.72 41.06 24.3822 41.38 24.24 41.38C24.1689 41.38 24.0622 41.3267 23.92 41.22C23.7778 41.1133 23.6533 40.9889 23.5467 40.8467C23.1911 40.42 23.0133 40.0467 23.0133 39.7267C23.0133 39.4067 23.1911 38.9622 23.5467 38.3933C23.7244 38.1089 23.9911 37.6644 24.3467 37.06C24.7022 36.4911 25.0578 35.9222 25.4133 35.3533C25.7333 34.7844 26.2311 33.9489 26.9067 32.8467C27.6178 31.78 28.3111 30.7311 28.9867 29.7C30.9067 26.7489 32.5067 24.2067 33.7867 22.0733C35.0667 19.94 36.0978 18.1089 36.88 16.58C37.6622 15.0511 38.1956 13.7889 38.48 12.7933C38.8 11.7978 38.9244 10.9444 38.8533 10.2333C38.7822 9.80667 38.7111 9.50445 38.64 9.32667C38.5689 9.11333 38.3911 8.86445 38.1067 8.58C37.7867 8.29556 37.52 8.11778 37.3067 8.04667C37.0933 7.97556 36.7378 7.94 36.24 7.94C33.7867 7.94 30.8 8.81111 27.28 10.5533C26.2133 11.0867 25.5378 11.4067 25.2533 11.5133C24.9689 11.62 24.7556 11.5844 24.6133 11.4067C24.1867 10.9089 24.0978 10.4644 24.3467 10.0733C24.6311 9.64667 25.3067 9.16667 26.3733 8.63333C27.2267 8.20667 28.1689 7.83333 29.2 7.51333C30.2311 7.19333 31.2267 6.96222 32.1867 6.82C33.1822 6.64222 34.0889 6.55333 34.9067 6.55333C35.76 6.55333 36.4356 6.66 36.9333 6.87333C37.8222 7.22889 38.4978 7.83333 38.96 8.68667C39.4222 9.50444 39.5644 10.4289 39.3867 11.46C39.2089 12.7756 38.5867 14.5889 37.52 16.9C36.4889 19.2111 34.9067 22.1978 32.7733 25.86C31.9911 27.2111 31.3689 28.2778 30.9067 29.06C30.48 29.8422 30.16 30.3933 29.9467 30.7133C29.7689 31.0689 29.68 31.2467 29.68 31.2467C29.7156 31.2822 29.8044 31.2289 29.9467 31.0867C30.2667 30.6956 30.5689 30.3044 30.8533 29.9133C30.9956 29.7356 31.1733 29.5044 31.3867 29.22C31.6 28.9356 31.7956 28.6689 31.9733 28.42C32.1511 28.2067 32.3822 27.9222 32.6667 27.5667C32.9511 27.2111 33.2 26.8911 33.4133 26.6067C34.5867 25.1489 35.6711 23.7978 36.6667 22.5533C37.6978 21.3089 38.6933 20.1356 39.6533 19.0333C40.6133 17.9311 41.5733 16.8822 42.5333 15.8867C43.4933 14.8556 44.4889 13.8244 45.52 12.7933C47.6889 10.6244 49.5733 8.9 51.1733 7.62C52.7733 6.30445 54.16 5.39778 55.3333 4.9ZM67.3676 27.3533C68.0432 27.1756 68.5232 27.0689 68.8076 27.0333C69.092 26.9978 69.2698 27.0156 69.3409 27.0867C69.5187 27.2644 69.4476 27.4422 69.1276 27.62C68.8432 27.7978 68.2032 28.0822 67.2076 28.4733C66.7098 28.6867 66.1943 28.8644 65.6609 29.0067C65.1276 29.1133 64.612 29.1844 64.1143 29.22C63.652 29.2556 63.2254 29.2556 62.8343 29.22C62.4787 29.1844 62.1943 29.0956 61.9809 28.9533C61.8032 28.8467 61.6254 28.6867 61.4476 28.4733C61.3054 28.26 61.1809 28.0644 61.0743 27.8867L60.8076 27.14L58.7809 28.42C56.6832 29.7356 55.4565 30.3933 55.1009 30.3933C54.9232 30.3933 54.7276 30.2511 54.5143 29.9667C54.2654 29.6822 54.1232 29.3444 54.0876 28.9533C54.052 28.5267 54.1587 28.1178 54.4076 27.7267C54.4787 27.5844 54.6209 27.3889 54.8343 27.14C55.0832 26.8556 55.332 26.5889 55.5809 26.34C55.8654 26.0556 56.1498 25.8067 56.4343 25.5933C56.7187 25.3444 56.9676 25.1667 57.1809 25.06C57.5365 24.8822 57.9098 24.7933 58.3009 24.7933C58.5854 24.7933 58.9232 24.9889 59.3143 25.38C59.7409 25.7356 59.9543 26.0556 59.9543 26.34C59.9543 26.7667 60.132 26.82 60.4876 26.5C60.6298 26.3222 60.7898 26.3044 60.9676 26.4467C61.1809 26.5533 61.3765 26.7667 61.5543 27.0867C61.6965 27.4422 62.0876 27.6911 62.7276 27.8333C63.332 28.0111 63.972 28.0644 64.6476 27.9933C65.3232 27.9222 66.2298 27.7089 67.3676 27.3533ZM57.7676 27.94C58.4432 27.5844 58.8698 27.3 59.0476 27.0867C59.2609 26.8378 59.1898 26.7133 58.8343 26.7133C58.692 26.7133 58.4787 26.7667 58.1943 26.8733C57.9454 26.98 57.6787 27.1222 57.3943 27.3C57.1098 27.4422 56.8254 27.6022 56.5409 27.78C56.292 27.9578 56.0965 28.1178 55.9543 28.26C55.6698 28.58 55.5098 28.7578 55.4743 28.7933C55.4743 28.8289 55.5987 28.8111 55.8476 28.74C55.9898 28.7044 56.2387 28.6156 56.5943 28.4733C56.9854 28.2956 57.3765 28.1178 57.7676 27.94ZM71.0091 22.7133C70.9735 22.6778 70.4757 22.6778 69.5157 22.7133C68.5913 22.7489 67.4713 22.8022 66.1557 22.8733C63.0268 22.98 61.3557 22.9978 61.1424 22.9267C61.0002 22.7844 60.9646 22.5356 61.0357 22.18L61.0891 21.5933H66.4757C67.9691 21.5933 69.2491 21.5933 70.3157 21.5933C71.3824 21.5578 71.9157 21.5222 71.9157 21.4867C71.9513 21.4511 72.2002 21.1311 72.6624 20.5267C73.1602 19.8867 73.7291 19.14 74.3691 18.2867C75.8624 16.2956 76.9291 14.9267 77.5691 14.18C78.2446 13.4333 78.7068 13.1133 78.9557 13.22C79.1691 13.2911 79.3291 13.5222 79.4357 13.9133C79.578 14.2689 79.6135 14.5889 79.5424 14.8733C79.5068 15.0156 79.2402 15.4244 78.7424 16.1C78.2802 16.7756 77.7113 17.5222 77.0357 18.34C76.3246 19.1578 75.738 19.8867 75.2757 20.5267C74.8135 21.1311 74.5824 21.4689 74.5824 21.54C74.5824 21.5756 74.9024 21.6111 75.5424 21.6467C76.1824 21.6822 76.9468 21.7 77.8357 21.7C80.0757 21.7 81.6224 21.7356 82.4757 21.8067C83.3291 21.8778 83.7557 22.0378 83.7557 22.2867C83.7557 22.3578 83.7024 22.4289 83.5957 22.5C83.5246 22.5356 83.3291 22.5711 83.0091 22.6067C82.6891 22.6422 82.1913 22.66 81.5157 22.66C80.8757 22.66 79.9691 22.66 78.7957 22.66C77.4446 22.66 76.2535 22.6778 75.2224 22.7133C74.2268 22.7133 73.6935 22.7311 73.6224 22.7667C73.5157 22.8378 73.3202 23.0867 73.0357 23.5133C72.7513 23.9044 72.4135 24.4022 72.0224 25.0067C71.6313 25.5756 71.2402 26.1978 70.8491 26.8733C70.458 27.5489 70.0846 28.1889 69.7291 28.7933C69.3735 29.3622 69.0891 29.8778 68.8757 30.34C68.6624 30.7667 68.5557 31.0333 68.5557 31.14C68.5557 31.3889 68.7691 31.4778 69.1957 31.4067C69.658 31.3711 70.2624 31.2111 71.0091 30.9267C71.7913 30.6778 72.698 30.3044 73.7291 29.8067C74.7602 29.3089 75.8446 28.74 76.9824 28.1C77.6935 27.7089 78.1024 27.5844 78.2091 27.7267C78.2802 27.8689 78.2091 28.0467 77.9957 28.26C77.818 28.4378 77.2135 28.8289 76.1824 29.4333C75.4357 29.86 74.8135 30.2156 74.3157 30.5C73.8535 30.82 73.4446 31.0689 73.0891 31.2467C72.7335 31.4244 72.4135 31.5844 72.1291 31.7267C71.8446 31.8689 71.5424 31.9933 71.2224 32.1C69.9068 32.5978 68.9468 32.6867 68.3424 32.3667C68.0935 32.2244 67.8802 31.9578 67.7024 31.5667C67.4891 31.2111 67.3824 30.8378 67.3824 30.4467C67.3824 30.1622 67.4713 29.7711 67.6491 29.2733C67.8268 28.74 68.058 28.1711 68.3424 27.5667C68.6268 26.9622 68.9646 26.3222 69.3557 25.6467C69.7468 24.9711 70.1557 24.3133 70.5824 23.6733C70.7602 23.4244 70.8846 23.2111 70.9557 23.0333C71.0624 22.8556 71.0802 22.7489 71.0091 22.7133ZM88.9392 30.34C86.7347 31.0867 85.2592 30.66 84.5125 29.06C84.3703 28.6689 84.2458 28.4378 84.1392 28.3667C84.0681 28.2956 83.9258 28.2956 83.7125 28.3667C83.3925 28.4733 82.9836 28.6511 82.4858 28.9C81.9881 29.1133 81.4547 29.3978 80.8858 29.7533C80.3169 30.0733 79.7481 30.4467 79.1792 30.8733C78.6103 31.3 78.0592 31.7267 77.5258 32.1533L76.3525 33.1133L75.8725 32.58C75.2325 31.94 75.1792 31.2289 75.7125 30.4467C75.8192 30.3044 76.0858 29.86 76.5125 29.1133C76.9392 28.3311 77.4014 27.4778 77.8992 26.5533C78.1481 26.0911 78.4325 25.5756 78.7525 25.0067C79.1081 24.4022 79.4458 23.8156 79.7658 23.2467C80.0858 22.6778 80.3881 22.1267 80.6725 21.5933C80.9925 21.06 81.2592 20.5978 81.4725 20.2067C82.4325 18.5711 83.2325 17.1844 83.8725 16.0467C84.5481 14.9089 85.0992 13.9311 85.5258 13.1133C85.9881 12.2956 86.3614 11.62 86.6458 11.0867C86.9303 10.5178 87.1792 10.0022 87.3925 9.54C87.6414 9.00667 87.8725 8.56222 88.0858 8.20667C88.2992 7.85111 88.4414 7.67333 88.5125 7.67333C88.7969 7.67333 88.9392 8.02889 88.9392 8.74C88.9392 8.84667 88.8147 9.18444 88.5658 9.75333C88.3169 10.3222 87.9792 11.0511 87.5525 11.94C87.1258 12.8289 86.6281 13.8067 86.0592 14.8733C85.5258 15.94 84.9747 17.0067 84.4058 18.0733C84.1569 18.5711 83.8369 19.1933 83.4458 19.94C83.0547 20.6867 82.6281 21.4867 82.1658 22.34C81.7392 23.1578 81.2947 23.9933 80.8325 24.8467C80.4058 25.7 80.0147 26.4822 79.6592 27.1933C79.3036 27.8689 79.0014 28.4378 78.7525 28.9C78.5392 29.3267 78.4325 29.54 78.4325 29.54C78.4325 29.5756 78.5392 29.54 78.7525 29.4333C79.0014 29.2911 79.2681 29.1311 79.5525 28.9533C80.4058 28.4556 81.2947 28.0289 82.2192 27.6733C83.1436 27.3178 83.7481 27.1578 84.0325 27.1933C84.2814 27.2289 84.5836 27.5667 84.9392 28.2067C85.1169 28.5622 85.2769 28.8111 85.4192 28.9533C85.5614 29.06 85.7747 29.1489 86.0592 29.22C86.3081 29.2556 86.6636 29.2556 87.1258 29.22C87.6236 29.1489 88.1569 29.06 88.7258 28.9533C89.2947 28.8467 89.8636 28.7222 90.4325 28.58C91.0014 28.4378 91.4814 28.2778 91.8725 28.1C92.5481 27.8156 93.0103 27.6911 93.2592 27.7267C93.5081 27.7622 93.5081 27.9222 93.2592 28.2067C93.1525 28.3133 92.9392 28.4556 92.6192 28.6333C92.3347 28.8111 91.9792 29.0067 91.5525 29.22C91.1258 29.4333 90.6814 29.6467 90.2192 29.86C89.7569 30.0378 89.3303 30.1978 88.9392 30.34ZM105.571 27.3533C106.246 27.1756 106.726 27.0689 107.011 27.0333C107.295 26.9978 107.473 27.0156 107.544 27.0867C107.722 27.2644 107.651 27.4422 107.331 27.62C107.046 27.7978 106.406 28.0822 105.411 28.4733C104.913 28.6867 104.397 28.8644 103.864 29.0067C103.331 29.1133 102.815 29.1844 102.317 29.22C101.855 29.2556 101.429 29.2556 101.037 29.22C100.682 29.1844 100.397 29.0956 100.184 28.9533C100.006 28.8467 99.8285 28.6867 99.6507 28.4733C99.5085 28.26 99.3841 28.0644 99.2774 27.8867L99.0107 27.14L96.9841 28.42C94.8863 29.7356 93.6596 30.3933 93.3041 30.3933C93.1263 30.3933 92.9307 30.2511 92.7174 29.9667C92.4685 29.6822 92.3263 29.3444 92.2907 28.9533C92.2552 28.5267 92.3618 28.1178 92.6107 27.7267C92.6818 27.5844 92.8241 27.3889 93.0374 27.14C93.2863 26.8556 93.5352 26.5889 93.7841 26.34C94.0685 26.0556 94.353 25.8067 94.6374 25.5933C94.9218 25.3444 95.1707 25.1667 95.3841 25.06C95.7396 24.8822 96.113 24.7933 96.5041 24.7933C96.7885 24.7933 97.1263 24.9889 97.5174 25.38C97.9441 25.7356 98.1574 26.0556 98.1574 26.34C98.1574 26.7667 98.3352 26.82 98.6907 26.5C98.833 26.3222 98.993 26.3044 99.1707 26.4467C99.3841 26.5533 99.5796 26.7667 99.7574 27.0867C99.8996 27.4422 100.291 27.6911 100.931 27.8333C101.535 28.0111 102.175 28.0644 102.851 27.9933C103.526 27.9222 104.433 27.7089 105.571 27.3533ZM95.9707 27.94C96.6463 27.5844 97.073 27.3 97.2507 27.0867C97.4641 26.8378 97.393 26.7133 97.0374 26.7133C96.8952 26.7133 96.6818 26.7667 96.3974 26.8733C96.1485 26.98 95.8818 27.1222 95.5974 27.3C95.313 27.4422 95.0285 27.6022 94.7441 27.78C94.4952 27.9578 94.2996 28.1178 94.1574 28.26C93.873 28.58 93.713 28.7578 93.6774 28.7933C93.6774 28.8289 93.8018 28.8111 94.0507 28.74C94.193 28.7044 94.4418 28.6156 94.7974 28.4733C95.1885 28.2956 95.5796 28.1178 95.9707 27.94ZM110.279 24.9C110.279 25.0067 110.19 25.2556 110.012 25.6467C109.834 26.0378 109.603 26.4644 109.319 26.9267C108.501 28.2067 108.092 28.9 108.092 29.0067C108.092 29.1133 108.448 28.9711 109.159 28.58C110.19 27.9756 111.15 27.46 112.039 27.0333C112.928 26.5711 113.55 26.3044 113.906 26.2333C114.723 26.02 115.363 26.4467 115.826 27.5133C115.897 27.6911 116.003 27.8689 116.146 28.0467C116.288 28.1889 116.412 28.2778 116.519 28.3133C116.661 28.3489 116.892 28.3489 117.212 28.3133C117.532 28.2778 117.906 28.2067 118.332 28.1C118.759 27.9933 119.203 27.8511 119.666 27.6733C120.163 27.4956 120.643 27.3 121.106 27.0867C121.888 26.8022 122.386 26.6244 122.599 26.5533C122.848 26.4822 123.008 26.5178 123.079 26.66C123.186 27.0867 122.403 27.78 120.732 28.74C119.203 29.6644 117.994 30.0911 117.106 30.02C116.252 29.9489 115.612 29.3978 115.186 28.3667C115.008 28.0111 114.866 27.78 114.759 27.6733C114.688 27.5667 114.546 27.5133 114.332 27.5133C114.154 27.5133 113.852 27.6022 113.426 27.78C113.034 27.9222 112.572 28.1356 112.039 28.42C111.541 28.6689 110.99 28.9711 110.386 29.3267C109.781 29.6822 109.212 30.0378 108.679 30.3933C108.217 30.7133 107.843 30.9622 107.559 31.14C107.31 31.3178 107.114 31.4244 106.972 31.46C106.83 31.5311 106.706 31.5489 106.599 31.5133C106.528 31.5133 106.439 31.4778 106.332 31.4067C106.048 31.1933 105.834 30.9089 105.692 30.5533C105.55 30.2689 105.479 30.0556 105.479 29.9133C105.479 29.7711 105.55 29.4867 105.692 29.06C105.906 28.5622 106.172 28.0111 106.492 27.4067C106.848 26.7667 107.203 26.1622 107.559 25.5933C107.95 25.0244 108.306 24.5622 108.626 24.2067C108.981 23.8156 109.23 23.62 109.372 23.62C109.55 23.62 109.746 23.7622 109.959 24.0467C110.172 24.3311 110.279 24.6156 110.279 24.9Z" fill="black"/>
</svg>
