<svg width="56" height="56" viewBox="0 0 56 56" fill="none" xmlns="http://www.w3.org/2000/svg">
<g clip-path="url(#clip0_37_54)">
<path d="M42.875 0H13.125C5.87626 0 0 5.87626 0 13.125V42.875C0 50.1237 5.87626 56 13.125 56H42.875C50.1237 56 56 50.1237 56 42.875V13.125C56 5.87626 50.1237 0 42.875 0Z" fill="white"/>
<path d="M27.8423 6.34375C16.7359 6.34375 17.4293 11.1602 17.4293 11.1602L17.4418 16.1499H28.0405V17.6483H13.232C13.232 17.6483 6.125 16.842 6.125 28.0483C6.125 39.2549 12.3281 38.8577 12.3281 38.8577H16.0302V33.6573C16.0302 33.6573 15.8307 27.4542 22.1344 27.4542H32.6463C32.6463 27.4542 38.5523 27.5496 38.5523 21.7462V12.1507C38.5523 12.1507 39.4489 6.34375 27.8423 6.34375ZM21.9982 9.69916C22.2486 9.6989 22.4967 9.74804 22.7282 9.84378C22.9596 9.93951 23.17 10.08 23.3471 10.2571C23.5242 10.4342 23.6646 10.6445 23.7604 10.876C23.8561 11.1074 23.9053 11.3555 23.905 11.606C23.9052 11.8565 23.8561 12.1045 23.7603 12.336C23.6646 12.5674 23.5241 12.7777 23.347 12.9548C23.1699 13.1319 22.9596 13.2723 22.7281 13.368C22.4967 13.4637 22.2486 13.5129 21.9982 13.5126C21.7477 13.5129 21.4997 13.4637 21.2683 13.368C21.0368 13.2722 20.8265 13.1318 20.6495 12.9547C20.4724 12.7776 20.3319 12.5673 20.2362 12.3359C20.1405 12.1045 20.0913 11.8564 20.0915 11.606C20.0913 11.3555 20.1404 11.1075 20.2361 10.876C20.3319 10.6446 20.4723 10.4343 20.6494 10.2572C20.8265 10.08 21.0368 9.93959 21.2682 9.84384C21.4996 9.74809 21.7477 9.69893 21.9982 9.69916Z" fill="black"/>
<path d="M28.1577 49.8658C39.264 49.8658 38.5706 45.0496 38.5706 45.0496L38.5581 40.0597H27.9595V38.5615H42.768C42.768 38.5615 49.875 39.3676 49.875 28.161C49.875 16.9544 43.6719 17.3519 43.6719 17.3519H39.9697V22.5522C39.9697 22.5522 40.1692 28.7553 33.8655 28.7553H23.3537C23.3537 28.7553 17.4475 28.6597 17.4475 34.4632V44.0589C17.4475 44.0589 16.5508 49.8658 28.1577 49.8658ZM34.0018 46.5104C33.7513 46.5107 33.5033 46.4615 33.2718 46.3658C33.0404 46.2701 32.8301 46.1297 32.653 45.9526C32.4758 45.7755 32.3354 45.5652 32.2396 45.3337C32.1439 45.1023 32.0947 44.8542 32.095 44.6038C32.0947 44.3533 32.1438 44.1052 32.2396 43.8738C32.3353 43.6423 32.4758 43.432 32.6529 43.2549C32.83 43.0777 33.0403 42.9373 33.2718 42.8416C33.5032 42.7458 33.7513 42.6967 34.0018 42.6969C34.2523 42.6967 34.5003 42.7459 34.7318 42.8416C34.9632 42.9374 35.1735 43.0778 35.3507 43.2549C35.5278 43.432 35.6682 43.6423 35.764 43.8738C35.8597 44.1052 35.9089 44.3533 35.9086 44.6038C35.9088 44.8542 35.8597 45.1023 35.7639 45.3337C35.6681 45.5651 35.5277 45.7754 35.3506 45.9525C35.1735 46.1296 34.9632 46.27 34.7317 46.3657C34.5003 46.4615 34.2523 46.5106 34.0018 46.5104Z" fill="#323232"/>
</g>
<defs>
<clipPath id="clip0_37_54">
<rect width="56" height="56" fill="white"/>
</clipPath>
</defs>
</svg>
