<svg width="56" height="56" viewBox="0 0 56 56" fill="none" xmlns="http://www.w3.org/2000/svg">
<g clip-path="url(#clip0_37_66)">
<path d="M42.875 0H13.125C5.87626 0 0 5.87626 0 13.125V42.875C0 50.1237 5.87626 56 13.125 56H42.875C50.1237 56 56 50.1237 56 42.875V13.125C56 5.87626 50.1237 0 42.875 0Z" fill="white"/>
<path d="M28.0002 32.1455C30.2542 32.1455 32.0812 30.3183 32.0812 28.0645C32.0812 25.8107 30.2542 23.9835 28.0002 23.9835C25.7464 23.9835 23.9192 25.8107 23.9192 28.0645C23.9192 30.3183 25.7464 32.1455 28.0002 32.1455Z" fill="black"/>
<path d="M28.0004 19.7669C33.4797 19.7669 38.5698 20.5531 42.4077 21.8746C47.0319 23.4664 49.875 25.8794 49.875 28.0645C49.875 30.3415 46.8619 32.905 41.8961 34.5503C38.1419 35.7941 33.2017 36.4433 28.0004 36.4433C22.6677 36.4433 17.6179 35.8339 13.8213 34.5365C9.01797 32.8948 6.125 30.2982 6.125 28.0645C6.125 25.8972 8.83969 23.5027 13.3989 21.9133C17.2511 20.5702 22.4667 19.7669 27.9996 19.7669H28.0004Z" stroke="black" stroke-width="1.94928"/>
<path d="M20.7771 23.9396C23.5146 19.1931 26.7383 15.1764 29.8004 12.5121C33.4894 9.30147 37.0003 8.04409 38.8929 9.13543C40.8654 10.2729 41.5809 14.1641 40.5255 19.2876C39.7281 23.161 37.8219 27.7648 35.2234 32.2707C32.5592 36.8902 29.5088 40.9603 26.4885 43.6002C22.6667 46.9409 18.9718 48.1499 17.037 47.0341C15.1594 45.9522 14.4415 42.4038 15.3423 37.6602C16.1033 33.6521 18.0132 28.7326 20.7763 23.9396H20.7771Z" stroke="black" stroke-width="1.94928"/>
<path d="M20.7839 32.2827C18.0388 27.5415 16.1698 22.7417 15.3897 18.7583C14.4507 13.9587 15.1146 10.2891 17.0057 9.1945C18.9764 8.0535 22.7045 9.37694 26.6162 12.8503C29.5737 15.4761 32.6106 19.4261 35.2166 23.9275C37.8884 28.5427 39.8908 33.2185 40.6698 37.1534C41.6555 42.133 40.8577 45.9377 38.9246 47.0566C37.0491 48.1425 33.6167 46.993 29.9567 43.8434C26.8645 41.1825 23.5561 37.0711 20.7839 32.2827Z" stroke="black" stroke-width="1.94928"/>
</g>
<defs>
<clipPath id="clip0_37_66">
<rect width="56" height="56" fill="white"/>
</clipPath>
</defs>
</svg>
