<svg width="56" height="56" viewBox="0 0 56 56" fill="none" xmlns="http://www.w3.org/2000/svg">
<g clip-path="url(#clip0_36_45)">
<path d="M42.875 0H13.125C5.87626 0 0 5.87626 0 13.125V42.875C0 50.1237 5.87626 56 13.125 56H42.875C50.1237 56 56 50.1237 56 42.875V13.125C56 5.87626 50.1237 0 42.875 0Z" fill="black"/>
<path fill-rule="evenodd" clip-rule="evenodd" d="M18.1562 24.0625C19.4688 18.8125 22.7502 16.1875 28 16.1875C35.875 16.1875 36.8594 22.0938 40.7969 23.0781C43.4221 23.7346 45.7188 22.7502 47.6875 20.125C46.3752 25.3748 43.0935 28 37.8438 28C29.9688 28 28.9844 22.0938 25.0469 21.1094C22.4217 20.4531 20.125 21.4375 18.1562 24.0625ZM8.3125 35.875C9.625 30.6252 12.9062 28 18.1562 28C26.0312 28 27.0156 33.9062 30.9531 34.8906C33.5783 35.5471 35.875 34.5627 37.8438 31.9375C36.5315 37.1873 33.2498 39.8125 28 39.8125C20.125 39.8125 19.1406 33.9062 15.2031 32.9219C12.5781 32.2654 10.2812 33.2498 8.3125 35.875Z" fill="url(#paint0_linear_36_45)"/>
</g>
<defs>
<linearGradient id="paint0_linear_36_45" x1="18.9219" y1="16.1875" x2="35.7656" y2="40.5781" gradientUnits="userSpaceOnUse">
<stop stop-color="#EBEBEB"/>
<stop offset="1" stop-color="white"/>
</linearGradient>
<clipPath id="clip0_36_45">
<rect width="56" height="56" fill="white"/>
</clipPath>
</defs>
</svg>
